<?xml version="1.0" standalone="no"?>
<!DOCTYPE svg PUBLIC "-//W3C//DTD SVG 20010904//EN"
 "http://www.w3.org/TR/2001/REC-SVG-20010904/DTD/svg10.dtd">
<svg version="1.0" xmlns="http://www.w3.org/2000/svg"
 width="1280.000000pt" height="762.000000pt" viewBox="0 0 1280.000000 762.000000"
 preserveAspectRatio="xMidYMid meet">

<g transform="translate(0.000000,762.000000) scale(0.100000,-0.100000)"
fill="#000000" stroke="none">
<path d="M3566 7610 c-575 -40 -1138 -208 -1631 -488 -122 -69 -379 -242 -485
-327 -427 -342 -770 -756 -1016 -1229 -391 -753 -522 -1623 -369 -2451 68
-365 171 -672 341 -1015 192 -386 410 -687 723 -1000 598 -597 1364 -972 2205
-1080 226 -29 745 -29 970 0 735 94 1437 405 1989 882 43 37 82 68 85 68 4 -1
25 -17 47 -36 566 -500 1285 -821 2057 -919 104 -14 198 -16 515 -12 362 4
399 6 547 30 1381 231 2499 1154 2982 2462 328 886 304 1907 -66 2787 -99 235
-191 404 -346 638 -521 787 -1322 1353 -2242 1584 -318 80 -567 110 -927 110
-282 0 -446 -13 -678 -55 -667 -120 -1296 -418 -1804 -854 l-85 -74 -72 62
c-575 500 -1302 817 -2072 901 -178 20 -501 27 -668 16z m-1172 -3097 c4 -153
11 -417 15 -586 5 -169 10 -310 13 -312 3 -4 406 904 498 1123 l22 52 390 0
c367 0 390 -1 386 -17 -3 -10 -88 -447 -189 -970 l-184 -953 -237 0 c-198 0
-238 2 -238 14 0 8 61 332 135 721 74 389 135 712 135 719 0 6 -34 -65 -75
-159 -41 -93 -184 -422 -319 -730 l-245 -560 -218 0 -218 0 -32 590 c-17 325
-35 653 -40 730 l-8 140 -37 -190 c-20 -104 -83 -434 -140 -732 l-103 -543
-219 0 c-203 0 -218 1 -214 18 3 9 85 440 183 957 97 517 179 946 181 953 3 9
87 12 377 12 l374 0 7 -277z m6296 275 c0 -2 -15 -82 -33 -178 l-34 -175 119
-3 c104 -2 118 -5 118 -20 0 -9 -14 -93 -30 -187 -16 -93 -30 -173 -30 -177 0
-5 -56 -8 -125 -8 -69 0 -125 -3 -125 -7 0 -4 -30 -165 -66 -358 -62 -328 -66
-352 -53 -390 21 -61 60 -77 182 -73 53 2 97 1 97 -2 0 -37 -62 -335 -71 -341
-35 -21 -202 -44 -324 -44 -111 1 -138 4 -187 24 -77 30 -139 92 -168 167 -45
115 -39 168 115 1004 75 410 138 751 140 758 3 9 60 12 240 12 129 0 235 -1
235 -2z m-2510 -343 c163 -39 310 -147 374 -276 73 -146 83 -314 33 -554 l-22
-110 -473 -3 -472 -2 -5 -23 c-4 -12 -1 -44 5 -71 36 -160 155 -221 425 -220
152 1 242 16 385 64 47 15 86 27 88 25 2 -2 -14 -89 -35 -195 -44 -224 -23
-200 -207 -230 -322 -53 -599 -29 -795 67 -100 49 -213 160 -258 254 -58 117
-68 174 -67 369 0 157 3 185 27 274 95 353 347 594 672 646 78 12 243 4 325
-15z m4796 6 c208 -43 390 -173 474 -341 73 -146 96 -337 65 -546 -57 -380
-265 -626 -605 -715 -176 -46 -419 -50 -575 -10 -241 63 -408 224 -470 456
-36 136 -34 366 4 520 27 107 107 265 175 346 123 149 314 255 529 294 110 20
296 18 403 -4z m-6258 -20 c106 -31 168 -66 232 -130 79 -78 102 -141 108
-289 5 -132 0 -169 -79 -607 -54 -295 -88 -507 -89 -542 0 -10 -47 -13 -201
-13 l-202 0 7 81 7 81 -47 -41 c-62 -54 -171 -108 -259 -126 -107 -22 -270
-20 -348 6 -203 66 -310 272 -268 515 40 227 208 386 486 461 93 25 114 27
317 27 l217 1 5 29 c3 16 6 49 6 73 0 37 -6 51 -33 78 -43 43 -103 55 -275 55
-156 0 -267 -12 -395 -41 -49 -12 -90 -19 -93 -16 -6 5 44 305 55 332 9 21
117 50 306 80 139 22 447 14 543 -14z m3120 10 c35 -5 65 -11 68 -14 3 -2 -10
-84 -28 -181 l-32 -177 -116 8 c-166 12 -329 9 -372 -5 -60 -21 -88 -57 -88
-113 0 -42 4 -51 35 -76 19 -16 87 -51 151 -78 65 -27 142 -65 173 -85 69 -45
137 -118 161 -173 28 -62 42 -171 34 -252 -26 -272 -182 -408 -524 -456 -153
-22 -658 4 -710 36 -6 4 53 352 61 359 2 2 51 -7 109 -21 131 -30 373 -42 465
-23 85 18 125 59 125 128 0 46 -3 53 -37 81 -21 17 -71 45 -113 62 -236 98
-335 171 -395 289 -54 107 -51 276 9 404 72 156 210 248 439 292 78 15 465 12
585 -5z m2154 -13 c48 -14 52 7 -49 -254 l-77 -202 -81 6 c-98 6 -143 -7 -197
-56 -91 -83 -159 -288 -248 -752 -23 -118 -46 -239 -51 -267 l-10 -53 -240 0
-239 0 5 23 c6 26 285 1544 285 1552 0 3 97 5 215 5 177 0 215 -2 215 -14 0
-16 -29 -173 -37 -200 -3 -10 33 20 79 67 116 117 193 155 317 156 40 1 91 -4
113 -11z m1635 -1348 c50 -30 66 -63 60 -117 -9 -83 -92 -132 -170 -100 -96
41 -99 181 -4 222 44 20 77 18 114 -5z"/>
<path d="M5842 4074 c-77 -38 -136 -117 -167 -221 l-6 -23 184 0 c101 0 218
-3 260 -6 l77 -7 0 69 c-1 148 -69 214 -223 214 -58 0 -83 -5 -125 -26z"/>
<path d="M10689 4077 c-137 -39 -231 -149 -290 -337 -19 -59 -24 -98 -24 -185
0 -172 45 -274 143 -328 107 -58 235 -24 352 94 97 98 137 203 147 385 8 156
-17 253 -84 316 -57 54 -162 78 -244 55z"/>
<path d="M4294 3550 c-182 -28 -279 -124 -259 -257 13 -90 95 -142 200 -128
150 20 261 137 296 313 6 34 8 66 5 70 -11 10 -181 12 -242 2z"/>
<path d="M11521 3056 c-54 -30 -65 -91 -23 -136 37 -41 79 -48 115 -19 39 30
50 64 36 106 -17 53 -78 77 -128 49z m84 -83 c0 -54 -17 -73 -30 -33 -3 11
-11 20 -16 20 -5 0 -9 -9 -9 -20 0 -11 -4 -20 -10 -20 -5 0 -10 25 -10 56 l0
55 38 -3 37 -3 0 -52z"/>
<path d="M11550 2994 c0 -17 22 -14 28 4 2 7 -3 12 -12 12 -9 0 -16 -7 -16
-16z"/>
<path d="M12325 1786 c-52 -23 -70 -52 -70 -113 0 -49 3 -58 32 -83 84 -75
206 -25 206 85 0 50 -24 88 -68 109 -40 19 -60 20 -100 2z m94 -30 c27 -14 51
-53 51 -82 0 -54 -63 -102 -118 -89 -80 17 -95 135 -22 172 33 17 55 16 89 -1z"/>
<path d="M12330 1675 c0 -30 5 -55 10 -55 6 0 10 9 10 20 0 11 6 20 14 20 8 0
18 -9 21 -20 9 -27 29 -26 22 2 -3 12 -1 30 4 40 15 27 -6 48 -47 48 l-34 0 0
-55z m60 19 c0 -9 -7 -14 -17 -12 -25 5 -28 28 -4 28 12 0 21 -6 21 -16z"/>
</g>
</svg>
