<?xml version="1.0" standalone="no"?>
<!DOCTYPE svg PUBLIC "-//W3C//DTD SVG 20010904//EN"
 "http://www.w3.org/TR/2001/REC-SVG-20010904/DTD/svg10.dtd">
<svg version="1.0" xmlns="http://www.w3.org/2000/svg"
 width="1280.000000pt" height="768.000000pt" viewBox="0 0 1280.000000 768.000000"
 preserveAspectRatio="xMidYMid meet">

<g transform="translate(0.000000,768.000000) scale(0.100000,-0.100000)"
fill="#000000" stroke="none">
<path d="M3675 7594 c-194 -14 -319 -28 -444 -50 -1049 -177 -1984 -799 -2559
-1704 -312 -490 -505 -1049 -567 -1640 -20 -192 -20 -570 0 -763 37 -353 116
-679 240 -997 46 -118 180 -398 242 -505 276 -476 661 -896 1111 -1212 455
-319 988 -538 1526 -628 224 -37 310 -45 541 -52 1126 -32 2203 441 2955 1297
l74 85 -389 3 -390 3 -80 106 c-44 58 -106 145 -137 192 l-58 86 668 3 667 2
46 78 c52 86 169 305 169 315 0 4 -399 8 -887 9 l-887 3 -39 90 c-22 50 -54
131 -72 180 -18 50 -36 98 -40 108 -7 16 47 17 1039 17 l1046 0 11 28 c6 15
26 86 46 157 19 72 37 135 38 142 2 6 41 -26 87 -71 134 -131 262 -184 470
-193 116 -5 256 10 360 40 40 12 43 16 50 57 4 24 6 46 3 48 -2 2 -57 -4 -122
-13 -442 -64 -749 142 -840 565 -25 117 -25 416 0 545 53 271 161 482 325 638
33 31 58 57 55 57 -31 0 -215 -139 -257 -195 -19 -24 -31 -32 -46 -28 -11 3
-22 9 -25 13 -4 6 -45 205 -45 218 0 1 -520 2 -1155 2 -635 0 -1155 3 -1155 6
0 11 41 171 72 277 l31 107 1048 0 c577 0 1049 2 1049 5 0 11 -83 224 -121
311 l-41 94 -884 0 c-486 0 -884 2 -884 5 0 12 77 159 143 273 l71 122 663 0
c365 0 663 3 663 8 -1 11 -119 182 -203 292 l-77 100 -370 0 c-254 0 -370 3
-370 11 0 5 82 92 183 193 l183 183 -76 65 c-573 495 -1291 808 -2050 893
-132 15 -506 27 -605 19z m-2321 -2976 c3 -73 9 -335 13 -583 l8 -450 194 575
c106 316 197 578 200 583 4 4 149 6 322 5 l315 -3 -157 -950 c-87 -522 -158
-953 -159 -957 0 -5 -92 -8 -205 -8 -162 0 -205 3 -205 13 0 7 50 325 110 707
61 381 109 694 108 696 -2 1 -84 -223 -182 -499 -98 -276 -213 -595 -254 -709
l-74 -208 -135 0 c-98 0 -135 3 -138 13 -5 13 -35 1159 -35 1316 0 52 -2 92
-5 89 -3 -3 -55 -300 -115 -659 -61 -360 -115 -678 -121 -707 l-11 -52 -191 2
c-164 3 -192 5 -190 18 1 8 72 439 159 958 l158 942 292 0 292 0 6 -132z
m3886 0 c0 -7 -7 -49 -15 -93 -8 -44 -17 -92 -20 -107 l-4 -28 99 0 c61 0 100
-4 100 -10 0 -12 -37 -288 -45 -337 l-6 -32 -106 -3 -107 -3 -58 -355 c-40
-245 -56 -364 -50 -385 4 -17 22 -40 42 -53 31 -21 43 -23 118 -20 l82 4 -1
-25 c0 -14 -10 -91 -22 -171 l-22 -145 -63 -17 c-217 -58 -400 -37 -478 55
-70 83 -94 193 -74 348 30 241 209 1329 226 1373 5 14 32 16 205 16 153 0 199
-3 199 -12z m953 -193 c221 -39 378 -198 422 -429 23 -121 17 -236 -26 -458
l-12 -58 -408 0 -407 0 -7 -28 c-8 -37 11 -117 36 -159 89 -143 348 -171 651
-70 54 18 98 31 98 28 1 -28 -66 -369 -74 -378 -37 -41 -334 -77 -511 -62
-368 31 -577 249 -601 628 -24 363 138 738 390 902 136 89 276 115 449 84z
m-2999 -10 c229 -48 365 -208 366 -430 0 -33 -34 -304 -77 -602 l-77 -543
-178 0 -178 0 7 72 6 73 -49 -44 c-97 -86 -221 -131 -360 -131 -210 0 -349
120 -385 333 -31 187 29 385 153 508 130 129 374 201 622 184 77 -5 101 -4
107 7 13 20 10 120 -4 148 -18 37 -86 67 -170 74 -97 10 -296 -9 -410 -38 -51
-13 -94 -22 -96 -20 -5 5 47 323 55 335 8 13 140 50 249 70 125 22 325 24 419
4z m1350 -4 c32 -6 61 -13 64 -16 3 -3 -5 -84 -18 -180 l-24 -175 -80 7 c-45
5 -133 8 -196 8 -92 0 -123 -4 -153 -19 -68 -34 -89 -118 -42 -174 14 -17 76
-55 149 -90 74 -37 144 -80 175 -108 93 -84 140 -227 127 -385 -23 -281 -177
-427 -483 -459 -148 -16 -540 14 -569 43 -3 3 6 82 20 176 14 93 26 172 26
174 0 2 42 -8 93 -21 109 -29 335 -41 403 -23 111 30 147 138 71 209 -12 11
-74 48 -137 82 -145 78 -200 118 -245 180 -54 74 -76 148 -78 260 -2 200 66
340 208 432 61 40 157 74 248 89 65 10 362 3 441 -10z m3046 -26 c-5 -13 -18
-41 -28 -62 -11 -21 -32 -76 -47 -123 -23 -73 -33 -112 -60 -235 -4 -17 -12
-20 -66 -20 -60 0 -62 -1 -105 -48 -23 -26 -53 -73 -64 -105 -49 -128 -64
-207 -169 -852 l-17 -105 -207 -3 c-114 -1 -207 0 -207 3 0 3 52 328 115 723
63 394 118 735 121 757 11 81 -6 75 200 75 l184 0 -1 -27 c0 -16 -6 -62 -14
-103 -7 -41 -12 -76 -11 -77 1 -1 22 25 46 59 83 114 172 167 277 168 62 0 62
0 53 -25z"/>
<path d="M5991 4068 c-62 -14 -141 -94 -170 -171 -38 -104 -53 -97 199 -97
l220 0 1 28 c4 111 -10 160 -56 201 -54 47 -109 58 -194 39z"/>
<path d="M2890 3529 c-75 -13 -158 -56 -194 -102 -27 -33 -31 -48 -34 -110 -2
-58 1 -78 17 -104 27 -44 74 -66 137 -65 103 1 179 58 235 175 27 57 57 192
45 204 -10 11 -150 12 -206 2z"/>
<path d="M11815 4598 c-3 -18 -14 -92 -23 -164 l-18 -131 38 -43 c21 -24 40
-41 42 -39 1 2 15 83 30 179 15 96 30 187 33 203 5 27 5 27 -45 27 -50 0 -51
-1 -57 -32z"/>
<path d="M8320 4358 c-30 -11 -68 -30 -85 -41 -39 -26 -111 -95 -137 -130
l-20 -28 49 31 c65 41 162 70 237 70 80 0 199 -31 290 -74 39 -19 73 -33 75
-30 2 2 9 38 16 80 l12 77 -42 18 c-120 53 -295 65 -395 27z"/>
<path d="M8925 4247 l-70 -23 -27 -154 c-15 -85 -27 -165 -27 -176 l-1 -22 59
19 c149 46 437 64 539 34 45 -14 83 -44 94 -75 2 -6 44 -13 94 -16 l91 -7 7
50 c12 95 -19 153 -93 172 -115 30 -325 20 -497 -24 -54 -14 -99 -23 -101 -22
-1 2 6 55 17 118 11 63 20 122 20 132 0 22 -19 21 -105 -6z"/>
<path d="M10136 4243 c-16 -81 -18 -94 -136 -917 -38 -263 -73 -482 -79 -485
-9 -6 -31 -93 -31 -122 0 -5 94 -9 209 -9 l208 0 7 38 c14 89 26 82 -154 82
-88 0 -160 3 -160 7 0 10 219 1373 226 1406 5 26 4 27 -39 27 -42 0 -46 -2
-51 -27z"/>
<path d="M10979 4160 c-59 -50 -128 -140 -139 -182 -9 -33 -10 -33 -69 -33
-55 0 -63 -3 -96 -35 -36 -35 -86 -128 -99 -184 l-7 -30 44 41 c39 36 120 74
131 62 2 -2 -7 -45 -19 -94 -111 -437 -3 -841 260 -971 63 -31 86 -37 163 -42
139 -7 247 26 353 110 l51 40 -7 -66 -7 -66 195 0 c108 0 198 3 200 8 3 4 8
33 12 65 l7 57 -152 0 -153 0 7 65 7 65 -63 -48 c-80 -60 -147 -89 -242 -104
-204 -31 -388 73 -484 272 -63 133 -77 200 -77 380 0 168 11 243 56 382 34
104 76 191 136 277 24 35 42 65 41 67 -2 2 -24 -14 -49 -36z"/>
<path d="M11425 4001 c-52 -30 -80 -56 -111 -105 l-18 -29 32 17 c72 37 173
29 230 -19 108 -91 116 -357 17 -600 -6 -14 3 -9 29 15 49 46 112 176 132 270
23 109 15 288 -15 355 -41 93 -90 125 -188 125 -46 0 -69 -6 -108 -29z"/>
<path d="M8867 3623 c-92 -49 -168 -128 -211 -217 -19 -39 -38 -86 -41 -104
-7 -36 -6 -36 54 -14 9 3 12 -1 8 -14 -3 -10 -17 -92 -32 -180 l-26 -162 26
-51 c61 -122 198 -201 345 -201 116 1 276 58 335 121 l30 31 -35 -8 c-19 -5
-84 -9 -145 -9 -98 0 -116 3 -166 26 -75 36 -130 86 -166 156 -39 73 -53 141
-53 251 0 149 39 266 122 365 21 26 36 47 31 47 -4 0 -39 -17 -76 -37z"/>
<path d="M9415 3529 c-71 -11 -157 -50 -185 -86 -11 -14 -20 -28 -20 -32 0 -3
43 -4 96 -2 l97 3 -5 -73 c-3 -41 -15 -101 -27 -134 -11 -32 -21 -60 -21 -61
0 -10 94 23 122 43 70 48 133 170 145 283 5 54 4 57 -18 63 -31 9 -109 7 -184
-4z"/>
<path d="M9541 2946 c-24 -25 -70 -59 -102 -76 l-59 -31 0 -65 0 -64 180 0
179 0 6 38 c4 20 9 49 11 65 l6 27 -93 0 -92 0 6 75 c3 41 4 75 3 75 -1 0 -21
-20 -45 -44z"/>
</g>
</svg>
